{
  "accessors": [
    {
      "bufferView": 0,
      "componentType": 5125,
      "count": 48498,
      "type": "SCALAR"
    },
    {
      "bufferView": 1,
      "componentType": 5126,
      "count": 9575,
      "max": [
        0.017746682754789356,
        0.01769334947673748,
        0.009797317581493664
      ],
      "min": [
        -0.017746682754789356,
        -0.017693349476737487,
        -0.009797317581493662
      ],
      "type": "VEC3"
    },
    {
      "bufferView": 2,
      "componentType": 5126,
      "count": 9575,
      "max": [
        0.9999685421910127,
        0.9999988798891084,
        0.9999840270836797
      ],
      "min": [
        -0.9999783363078859,
        -0.9999999196382989,
        -0.9999840270836797
      ],
      "type": "VEC3"
    },
    {
      "bufferView": 3,
      "componentType": 5126,
      "count": 9575,
      "max": [
        0.9827018955370436,
        1.0
      ],
      "min": [
        0.0,
        0.0
      ],
      "type": "VEC2"
    }
  ],
  "asset": {
    "generator": "Adobe Illustrator",
    "version": "2.0"
  },
  "bufferViews": [
    {
      "buffer": 0,
      "byteLength": 193992,
      "target": 34963
    },
    {
      "buffer": 0,
      "byteLength": 114900,
      "byteOffset": 193992,
      "target": 34962
    },
    {
      "buffer": 0,
      "byteLength": 114900,
      "byteOffset": 308892,
      "target": 34962
    },
    {
      "buffer": 0,
      "byteLength": 76600,
      "byteOffset": 423792,
      "target": 34962
    }
  ],
  "buffers": [
    {
      "byteLength": 500392,
      "uri": "data:application/octet-stream;base64,"
    }
  ],
  "images": [
    {
      "name": "BaseColor",
      "uri": "data:image/png;base64,"
    }
  ],
  "materials": [
    {
      "doubleSided": true,
      "pbrMetallicRoughness": {
        "baseColorTexture": {
          "index": 0
        },
        "metallicFactor": 0.0,
        "roughnessFactor": 0.4000000059604645
      }
    }
  ],
  "meshes": [
    {
      "primitives": [
        {
          "attributes": {
            "NORMAL": 2,
            "POSITION": 1,
            "TEXCOORD_0": 3
          },
          "indices": 0,
          "material": 0,
          "mode": 4
        }
      ]
    }
  ],
  "nodes": [
    {
      "mesh": 0
    }
  ],
  "samplers": [
    {
      "magFilter": 9729,
      "minFilter": 9729,
      "wrapS": 10497,
      "wrapT": 10497
    }
  ],
  "scenes": [
    {
      "nodes": [
        0
      ]
    }
  ],
  "textures": [
    {
      "sampler": 0,
      "source": 0
    }
  ]
}
