{
  "accessors": [
    {
      "bufferView": 0,
      "componentType": 5125,
      "count": 46908,
      "type": "SCALAR"
    },
    {
      "bufferView": 1,
      "componentType": 5126,
      "count": 9180,
      "max": [
        0.011911126800098149,
        0.013051135180440059,
        0.007906670652600555
      ],
      "min": [
        -0.011911126800098204,
        -0.013051135180440054,
        -0.007906670652600553
      ],
      "type": "VEC3"
    },
    {
      "bufferView": 2,
      "componentType": 5126,
      "count": 9180,
      "max": [
        0.9999999999999608,
        0.9999999739992633,
        0.9999715051228113
      ],
      "min": [
        -0.9999999999999608,
        -0.9999998556871169,
        -0.9999715051228113
      ],
      "type": "VEC3"
    },
    {
      "bufferView": 3,
      "componentType": 5126,
      "count": 9180,
      "max": [
        1.0,
        0.5799420994102344
      ],
      "min": [
        0.0,
        0.0
      ],
      "type": "VEC2"
    }
  ],
  "asset": {
    "generator": "Adobe Illustrator",
    "version": "2.0"
  },
  "bufferViews": [
    {
      "buffer": 0,
      "byteLength": 187632,
      "target": 34963
    },
    {
      "buffer": 0,
      "byteLength": 110160,
      "byteOffset": 187632,
      "target": 34962
    },
    {
      "buffer": 0,
      "byteLength": 110160,
      "byteOffset": 297792,
      "target": 34962
    },
    {
      "buffer": 0,
      "byteLength": 73440,
      "byteOffset": 407952,
      "target": 34962
    }
  ],
  "buffers": [
    {
      "byteLength": 481392,
      "uri": "data:application/octet-stream;base64,"
    }
  ],
  "images": [
    {
      "name": "BaseColor",
      "uri": "data:image/png;base64,"
    }
  ],
  "materials": [
    {
      "doubleSided": true,
      "pbrMetallicRoughness": {
        "baseColorTexture": {
          "index": 0
        },
        "metallicFactor": 0.0,
        "roughnessFactor": 0.4000000059604645
      }
    }
  ],
  "meshes": [
    {
      "primitives": [
        {
          "attributes": {
            "NORMAL": 2,
            "POSITION": 1,
            "TEXCOORD_0": 3
          },
          "indices": 0,
          "material": 0,
          "mode": 4
        }
      ]
    }
  ],
  "nodes": [
    {
      "mesh": 0
    }
  ],
  "samplers": [
    {
      "magFilter": 9729,
      "minFilter": 9729,
      "wrapS": 10497,
      "wrapT": 10497
    }
  ],
  "scenes": [
    {
      "nodes": [
        0
      ]
    }
  ],
  "textures": [
    {
      "sampler": 0,
      "source": 0
    }
  ]
}
