{
  "accessors": [
    {
      "bufferView": 0,
      "componentType": 5125,
      "count": 45672,
      "type": "SCALAR"
    },
    {
      "bufferView": 1,
      "componentType": 5126,
      "count": 8846,
      "max": [
        0.0550990612914643,
        0.06400010464709821,
        0.03387249435103538
      ],
      "min": [
        -0.05509906129146429,
        -0.06400010464709821,
        -0.03387249435103537
      ],
      "type": "VEC3"
    },
    {
      "bufferView": 2,
      "componentType": 5126,
      "count": 8846,
      "max": [
        0.9999922480380677,
        0.9999986268226929,
        0.9999915379478569
      ],
      "min": [
        -0.9999966490876715,
        -0.9999998166599302,
        -0.9999915379478569
      ],
      "type": "VEC3"
    },
    {
      "bufferView": 3,
      "componentType": 5126,
      "count": 8846,
      "max": [
        1.0,
        0.6667368237248348
      ],
      "min": [
        0.0,
        0.0
      ],
      "type": "VEC2"
    }
  ],
  "asset": {
    "generator": "Adobe Illustrator",
    "version": "2.0"
  },
  "bufferViews": [
    {
      "buffer": 0,
      "byteLength": 182688,
      "target": 34963
    },
    {
      "buffer": 0,
      "byteLength": 106152,
      "byteOffset": 182688,
      "target": 34962
    },
    {
      "buffer": 0,
      "byteLength": 106152,
      "byteOffset": 288840,
      "target": 34962
    },
    {
      "buffer": 0,
      "byteLength": 70768,
      "byteOffset": 394992,
      "target": 34962
    }
  ],
  "buffers": [
    {
      "byteLength": 465760,
      "uri": "data:application/octet-stream;base64,"
    }
  ],
  "images": [
    {
      "name": "BaseColor",
      "uri": "data:image/png;base64,"
    }
  ],
  "materials": [
    {
      "doubleSided": true,
      "pbrMetallicRoughness": {
        "baseColorTexture": {
          "index": 0
        },
        "metallicFactor": 0.0,
        "roughnessFactor": 0.4000000059604645
      }
    }
  ],
  "meshes": [
    {
      "primitives": [
        {
          "attributes": {
            "NORMAL": 2,
            "POSITION": 1,
            "TEXCOORD_0": 3
          },
          "indices": 0,
          "material": 0,
          "mode": 4
        }
      ]
    }
  ],
  "nodes": [
    {
      "mesh": 0
    }
  ],
  "samplers": [
    {
      "magFilter": 9729,
      "minFilter": 9729,
      "wrapS": 10497,
      "wrapT": 10497
    }
  ],
  "scenes": [
    {
      "nodes": [
        0
      ]
    }
  ],
  "textures": [
    {
      "sampler": 0,
      "source": 0
    }
  ]
}
