{
  "accessors": [
    {
      "bufferView": 0,
      "componentType": 5125,
      "count": 47748,
      "type": "SCALAR"
    },
    {
      "bufferView": 1,
      "componentType": 5126,
      "count": 9432,
      "max": [
        0.00961718725493571,
        0.010539062238668517,
        0.006377076372830734
      ],
      "min": [
        -0.009617187254935766,
        -0.010539062238668517,
        -0.006377076372830734
      ],
      "type": "VEC3"
    },
    {
      "bufferView": 2,
      "componentType": 5126,
      "count": 9432,
      "max": [
        0.9999998547175354,
        0.999999483867392,
        0.999842943884025
      ],
      "min": [
        -1.0,
        -1.0,
        -0.999842943884025
      ],
      "type": "VEC3"
    },
    {
      "bufferView": 3,
      "componentType": 5126,
      "count": 9432,
      "max": [
        1.0,
        0.5873085021790517
      ],
      "min": [
        0.0,
        0.0
      ],
      "type": "VEC2"
    }
  ],
  "asset": {
    "generator": "Adobe Illustrator",
    "version": "2.0"
  },
  "bufferViews": [
    {
      "buffer": 0,
      "byteLength": 190992,
      "target": 34963
    },
    {
      "buffer": 0,
      "byteLength": 113184,
      "byteOffset": 190992,
      "target": 34962
    },
    {
      "buffer": 0,
      "byteLength": 113184,
      "byteOffset": 304176,
      "target": 34962
    },
    {
      "buffer": 0,
      "byteLength": 75456,
      "byteOffset": 417360,
      "target": 34962
    }
  ],
  "buffers": [
    {
      "byteLength": 492816,
      "uri": "data:application/octet-stream;base64,"
    }
  ],
  "images": [
    {
      "name": "BaseColor",
      "uri": "data:image/png;base64,"
    }
  ],
  "materials": [
    {
      "doubleSided": true,
      "pbrMetallicRoughness": {
        "baseColorTexture": {
          "index": 0
        },
        "metallicFactor": 0.0,
        "roughnessFactor": 0.4000000059604645
      }
    }
  ],
  "meshes": [
    {
      "primitives": [
        {
          "attributes": {
            "NORMAL": 2,
            "POSITION": 1,
            "TEXCOORD_0": 3
          },
          "indices": 0,
          "material": 0,
          "mode": 4
        }
      ]
    }
  ],
  "nodes": [
    {
      "mesh": 0
    }
  ],
  "samplers": [
    {
      "magFilter": 9729,
      "minFilter": 9729,
      "wrapS": 10497,
      "wrapT": 10497
    }
  ],
  "scenes": [
    {
      "nodes": [
        0
      ]
    }
  ],
  "textures": [
    {
      "sampler": 0,
      "source": 0
    }
  ]
}
